FFmpeg version SVN-r25716, Copyright (c) 2000-2010 the FFmpeg developers  built on Nov 10 2010 12:23:18 with gcc 4.1.2 20080704 (Red Hat 4.1.2-48)  configuration: --enable-libmp3lame --enable-shared --disable-mmx --arch=x86_64  libavutil     50.33. 0 / 50.33. 0  libavcore      0.12. 1 /  0.12. 1  libavcodec    52.94. 4 / 52.94. 4  libavformat   52.84. 0 / 52.84. 0  libavdevice   52. 2. 2 / 52. 2. 2  libavfilter    1.59. 0 /  1.59. 0  libswscale     0.12. 0 /  0.12. 0Seems stream 0 codec frame rate differs from container frame rate: 1800.00 (1800/1) -> 10.00 (10/1)Input #0, mov,mp4,m4a,3gp,3g2,mj2, from '/RAID10/data/converted_video_files/40269.mov':  Metadata:    major_brand     : qt      minor_version   : 537199360    compatible_brands: qt    Duration: 00:00:05.30, start: 0.000000, bitrate: 32569 kb/s    Stream #0.0(eng): Video: qtrle, rgb24, 510x423, 32567 kb/s, 10 fps, 10 tbr, 1800 tbn, 1800 tbc[buffer @ 0x1c2d9070] w:510 h:423 pixfmt:rgb24[ffsink @ 0x1c2d98e0] auto-inserting filter 'auto-inserted scaler 0' between the filter 'src' and the filter 'out'[scale @ 0x1c2d9c00] w:510 h:423 fmt:rgb24 -> w:510 h:423 fmt:yuv420p flags:0x4Output #0, flv, to '/RAID10/data/converted_video_files/40269.flv':  Metadata:    encoder         : Lavf52.84.0    Stream #0.0(eng): Video: flv, yuv420p, 510x423, q=2-31, 600 kb/s, 1k tbn, 24 tbcStream mapping:  Stream #0.0 -> #0.0Press [q] to stop encodingframe=   25 fps=  0 q=14.1 size=     276kB time=2.46 bitrate= 920.8kbits/s    frame=   53 fps= 51 q=10.4 Lsize=     376kB time=5.25 bitrate= 586.6kbits/s    video:375kB audio:0kB global headers:0kB muxing overhead 0.275636%